# xmcd CD database file
#
# Track frame offsets:
#	150
#	19383
#	41243
#	61033
#	77646
#	94875
#	111227
#	128659
#	148052
#	167163
#	188212
#	205682
#
# Disc length: 2989 seconds
#
# Revision: 0
# Processed by: cddbd v1.5.1PL0 Copyright (c) Steve Scherf et al.
# Submitted via: CDex 1.50
#
DISCID=a60bab0c
DTITLE=真鍋ちえみ - 不思議・少女
DYEAR=2005
DGENRE=JPop
TTITLE0=不思議・少女
TTITLE1=恋のSeaside Perty
TTITLE2=不思議なカ・ル・ト
TTITLE3=ロマンチスト
TTITLE4=ねらわれた少女
TTITLE5=ロマンティックしましょう
TTITLE6=彼をかえして
TTITLE7=うんととおく
TTITLE8=ハートがピッピッ
TTITLE9=Good・By-Good・By
TTITLE10=青い柿
TTITLE11=ナイトトレイン・美少女
EXTD=YEAR: 2005/02/23
EXTT0=
EXTT1=
EXTT2=
EXTT3=
EXTT4=
EXTT5=
EXTT6=
EXTT7=
EXTT8=
EXTT9=
EXTT10=
EXTT11=
PLAYORDER=
